<mxfile host="app.diagrams.net" agent="Mozilla/5.0 (Windows NT 10.0; Win64; x64; rv:135.0) Gecko/20100101 Firefox/135.0" version="26.0.16">
  <diagram name="Page-1" id="IsrsMwPQzEmUyN6ijTW7">
    <mxGraphModel dx="988" dy="543" grid="1" gridSize="10" guides="1" tooltips="1" connect="1" arrows="1" fold="1" page="1" pageScale="1" pageWidth="850" pageHeight="1100" math="0" shadow="0">
      <root>
        <mxCell id="0" />
        <mxCell id="1" parent="0" />
        <mxCell id="1xD0KfqISIVIkjImCXy8-4" value="&lt;div&gt;&lt;b&gt;Vehicule&lt;/b&gt;&lt;/div&gt;" style="swimlane;whiteSpace=wrap;html=1;fontStyle=2" vertex="1" parent="1">
          <mxGeometry x="210" y="20" width="180" height="330" as="geometry" />
        </mxCell>
        <mxCell id="1xD0KfqISIVIkjImCXy8-5" value="annee" style="text;html=1;align=center;verticalAlign=middle;whiteSpace=wrap;rounded=0;" vertex="1" parent="1xD0KfqISIVIkjImCXy8-4">
          <mxGeometry y="48" width="180" height="26" as="geometry" />
        </mxCell>
        <mxCell id="1xD0KfqISIVIkjImCXy8-6" value="reference_voiture" style="text;html=1;align=center;verticalAlign=middle;whiteSpace=wrap;rounded=0;" vertex="1" parent="1xD0KfqISIVIkjImCXy8-4">
          <mxGeometry y="22" width="180" height="26" as="geometry" />
        </mxCell>
        <mxCell id="1xD0KfqISIVIkjImCXy8-7" value="Type" style="text;html=1;align=center;verticalAlign=middle;whiteSpace=wrap;rounded=0;" vertex="1" parent="1xD0KfqISIVIkjImCXy8-4">
          <mxGeometry y="74" width="180" height="26" as="geometry" />
        </mxCell>
        <mxCell id="1xD0KfqISIVIkjImCXy8-8" value="Marque" style="text;html=1;align=center;verticalAlign=middle;whiteSpace=wrap;rounded=0;" vertex="1" parent="1xD0KfqISIVIkjImCXy8-4">
          <mxGeometry y="100" width="180" height="26" as="geometry" />
        </mxCell>
        <mxCell id="1xD0KfqISIVIkjImCXy8-9" value="Couleur" style="text;html=1;align=center;verticalAlign=middle;whiteSpace=wrap;rounded=0;" vertex="1" parent="1xD0KfqISIVIkjImCXy8-4">
          <mxGeometry y="126" width="180" height="26" as="geometry" />
        </mxCell>
        <mxCell id="1xD0KfqISIVIkjImCXy8-10" value="prix" style="text;html=1;align=center;verticalAlign=middle;whiteSpace=wrap;rounded=0;" vertex="1" parent="1xD0KfqISIVIkjImCXy8-4">
          <mxGeometry y="152" width="180" height="26" as="geometry" />
        </mxCell>
        <mxCell id="1xD0KfqISIVIkjImCXy8-36" value="nb_portes" style="text;html=1;align=center;verticalAlign=middle;whiteSpace=wrap;rounded=0;" vertex="1" parent="1xD0KfqISIVIkjImCXy8-4">
          <mxGeometry y="178" width="180" height="26" as="geometry" />
        </mxCell>
        <mxCell id="1xD0KfqISIVIkjImCXy8-39" value="&lt;i&gt;reference_moteur&lt;/i&gt;" style="text;whiteSpace=wrap;html=1;" vertex="1" parent="1xD0KfqISIVIkjImCXy8-4">
          <mxGeometry x="40" y="204" width="100" height="26" as="geometry" />
        </mxCell>
        <mxCell id="1xD0KfqISIVIkjImCXy8-40" value="reference_option" style="text;html=1;align=center;verticalAlign=middle;whiteSpace=wrap;rounded=0;fontStyle=2" vertex="1" parent="1xD0KfqISIVIkjImCXy8-4">
          <mxGeometry x="30" y="230" width="120" height="26" as="geometry" />
        </mxCell>
        <mxCell id="1xD0KfqISIVIkjImCXy8-42" value="reference_boite" style="text;html=1;align=center;verticalAlign=middle;whiteSpace=wrap;rounded=0;fontStyle=2" vertex="1" parent="1xD0KfqISIVIkjImCXy8-4">
          <mxGeometry x="30" y="256" width="120" height="26" as="geometry" />
        </mxCell>
        <mxCell id="1xD0KfqISIVIkjImCXy8-43" value="reference_categorie" style="text;html=1;align=center;verticalAlign=middle;whiteSpace=wrap;rounded=0;fontStyle=2" vertex="1" parent="1xD0KfqISIVIkjImCXy8-4">
          <mxGeometry x="30" y="282" width="120" height="26" as="geometry" />
        </mxCell>
        <mxCell id="1xD0KfqISIVIkjImCXy8-11" value="&lt;div&gt;Moteur&lt;/div&gt;" style="swimlane;whiteSpace=wrap;html=1;" vertex="1" parent="1">
          <mxGeometry x="440" y="40" width="120" height="80" as="geometry" />
        </mxCell>
        <mxCell id="1xD0KfqISIVIkjImCXy8-12" value="Nom" style="text;html=1;align=center;verticalAlign=middle;whiteSpace=wrap;rounded=0;" vertex="1" parent="1xD0KfqISIVIkjImCXy8-11">
          <mxGeometry y="50" width="120" height="26" as="geometry" />
        </mxCell>
        <mxCell id="1xD0KfqISIVIkjImCXy8-15" value="reference_moteur" style="text;html=1;align=center;verticalAlign=middle;whiteSpace=wrap;rounded=0;" vertex="1" parent="1xD0KfqISIVIkjImCXy8-11">
          <mxGeometry y="24" width="120" height="26" as="geometry" />
        </mxCell>
        <mxCell id="1xD0KfqISIVIkjImCXy8-16" value="&lt;div&gt;Option&lt;/div&gt;" style="swimlane;whiteSpace=wrap;html=1;" vertex="1" parent="1">
          <mxGeometry x="440" y="160" width="120" height="110" as="geometry" />
        </mxCell>
        <mxCell id="1xD0KfqISIVIkjImCXy8-17" value="Nom" style="text;html=1;align=center;verticalAlign=middle;whiteSpace=wrap;rounded=0;" vertex="1" parent="1xD0KfqISIVIkjImCXy8-16">
          <mxGeometry y="50" width="120" height="26" as="geometry" />
        </mxCell>
        <mxCell id="1xD0KfqISIVIkjImCXy8-18" value="reference_option" style="text;html=1;align=center;verticalAlign=middle;whiteSpace=wrap;rounded=0;" vertex="1" parent="1xD0KfqISIVIkjImCXy8-16">
          <mxGeometry y="24" width="120" height="26" as="geometry" />
        </mxCell>
        <mxCell id="1xD0KfqISIVIkjImCXy8-26" value="Prix" style="text;html=1;align=center;verticalAlign=middle;whiteSpace=wrap;rounded=0;" vertex="1" parent="1xD0KfqISIVIkjImCXy8-16">
          <mxGeometry y="76" width="120" height="26" as="geometry" />
        </mxCell>
        <mxCell id="1xD0KfqISIVIkjImCXy8-19" value="&lt;div&gt;Vitesse&lt;/div&gt;" style="swimlane;whiteSpace=wrap;html=1;" vertex="1" parent="1">
          <mxGeometry x="50" y="190" width="120" height="80" as="geometry" />
        </mxCell>
        <mxCell id="1xD0KfqISIVIkjImCXy8-20" value="Nom" style="text;html=1;align=center;verticalAlign=middle;whiteSpace=wrap;rounded=0;" vertex="1" parent="1xD0KfqISIVIkjImCXy8-19">
          <mxGeometry y="50" width="120" height="26" as="geometry" />
        </mxCell>
        <mxCell id="1xD0KfqISIVIkjImCXy8-21" value="reference_boite" style="text;html=1;align=center;verticalAlign=middle;whiteSpace=wrap;rounded=0;" vertex="1" parent="1xD0KfqISIVIkjImCXy8-19">
          <mxGeometry y="24" width="120" height="26" as="geometry" />
        </mxCell>
        <mxCell id="1xD0KfqISIVIkjImCXy8-22" value="&lt;div&gt;CatÃ©gorie&lt;/div&gt;" style="swimlane;whiteSpace=wrap;html=1;" vertex="1" parent="1">
          <mxGeometry x="50" y="90" width="120" height="80" as="geometry" />
        </mxCell>
        <mxCell id="1xD0KfqISIVIkjImCXy8-23" value="Nom" style="text;html=1;align=center;verticalAlign=middle;whiteSpace=wrap;rounded=0;" vertex="1" parent="1xD0KfqISIVIkjImCXy8-22">
          <mxGeometry y="50" width="120" height="26" as="geometry" />
        </mxCell>
        <mxCell id="1xD0KfqISIVIkjImCXy8-24" value="reference_categorie" style="text;html=1;align=center;verticalAlign=middle;whiteSpace=wrap;rounded=0;" vertex="1" parent="1xD0KfqISIVIkjImCXy8-22">
          <mxGeometry y="24" width="120" height="26" as="geometry" />
        </mxCell>
        <mxCell id="1xD0KfqISIVIkjImCXy8-33" value="&lt;div&gt;Equipement&lt;/div&gt;" style="swimlane;whiteSpace=wrap;html=1;" vertex="1" parent="1">
          <mxGeometry x="440" y="320" width="120" height="80" as="geometry" />
        </mxCell>
        <mxCell id="1xD0KfqISIVIkjImCXy8-34" value="reference_option" style="text;html=1;align=center;verticalAlign=middle;whiteSpace=wrap;rounded=0;" vertex="1" parent="1xD0KfqISIVIkjImCXy8-33">
          <mxGeometry y="50" width="120" height="26" as="geometry" />
        </mxCell>
        <mxCell id="1xD0KfqISIVIkjImCXy8-35" value="reference_voiture" style="text;html=1;align=center;verticalAlign=middle;whiteSpace=wrap;rounded=0;" vertex="1" parent="1xD0KfqISIVIkjImCXy8-33">
          <mxGeometry y="24" width="120" height="26" as="geometry" />
        </mxCell>
        <mxCell id="1xD0KfqISIVIkjImCXy8-44" value="" style="endArrow=none;html=1;rounded=0;entryX=0;entryY=0.75;entryDx=0;entryDy=0;" edge="1" parent="1" target="1xD0KfqISIVIkjImCXy8-17">
          <mxGeometry width="50" height="50" relative="1" as="geometry">
            <mxPoint x="390" y="230" as="sourcePoint" />
            <mxPoint x="430" y="230" as="targetPoint" />
          </mxGeometry>
        </mxCell>
        <mxCell id="1xD0KfqISIVIkjImCXy8-45" value="" style="endArrow=none;html=1;rounded=0;entryX=0;entryY=0.75;entryDx=0;entryDy=0;" edge="1" parent="1">
          <mxGeometry width="50" height="50" relative="1" as="geometry">
            <mxPoint x="390" y="320" as="sourcePoint" />
            <mxPoint x="440" y="320" as="targetPoint" />
          </mxGeometry>
        </mxCell>
        <mxCell id="1xD0KfqISIVIkjImCXy8-46" value="" style="endArrow=none;html=1;rounded=0;entryX=0;entryY=0.75;entryDx=0;entryDy=0;" edge="1" parent="1">
          <mxGeometry width="50" height="50" relative="1" as="geometry">
            <mxPoint x="390" y="40" as="sourcePoint" />
            <mxPoint x="440" y="40" as="targetPoint" />
          </mxGeometry>
        </mxCell>
        <mxCell id="1xD0KfqISIVIkjImCXy8-47" value="" style="endArrow=none;html=1;rounded=0;entryX=0;entryY=1;entryDx=0;entryDy=0;" edge="1" parent="1" target="1xD0KfqISIVIkjImCXy8-5">
          <mxGeometry width="50" height="50" relative="1" as="geometry">
            <mxPoint x="170" y="90" as="sourcePoint" />
            <mxPoint x="190" y="90" as="targetPoint" />
          </mxGeometry>
        </mxCell>
        <mxCell id="1xD0KfqISIVIkjImCXy8-48" value="" style="endArrow=none;html=1;rounded=0;entryX=0;entryY=0.75;entryDx=0;entryDy=0;" edge="1" parent="1" target="1xD0KfqISIVIkjImCXy8-10">
          <mxGeometry width="50" height="50" relative="1" as="geometry">
            <mxPoint x="170" y="190" as="sourcePoint" />
            <mxPoint x="208" y="191" as="targetPoint" />
          </mxGeometry>
        </mxCell>
      </root>
    </mxGraphModel>
  </diagram>
</mxfile>
